<?xml version="1.0" encoding="UTF-8" standalone="no"?>
<svg
   xmlns:dc="http://purl.org/dc/elements/1.1/"
   xmlns:cc="http://creativecommons.org/ns#"
   xmlns:rdf="http://www.w3.org/1999/02/22-rdf-syntax-ns#"
   xmlns:svg="http://www.w3.org/2000/svg"
   xmlns="http://www.w3.org/2000/svg"
   xmlns:sodipodi="http://sodipodi.sourceforge.net/DTD/sodipodi-0.dtd"
   xmlns:inkscape="http://www.inkscape.org/namespaces/inkscape"
   sodipodi:docname="phpmserver.svg"
   inkscape:version="1.0 (4035a4fb49, 2020-05-01)"
   width="512.0px"
   height="512.0px"
   viewBox="0 0 512.0 512.0"
   version="1.1"
   id="SVGRoot">
  <defs
     id="defs3995" />
  <sodipodi:namedview
     inkscape:window-maximized="1"
     inkscape:window-y="0"
     inkscape:window-x="1920"
     inkscape:window-height="1171"
     inkscape:window-width="1920"
     showgrid="true"
     inkscape:document-rotation="0"
     inkscape:current-layer="layer1"
     inkscape:document-units="px"
     inkscape:cy="503.26937"
     inkscape:cx="188.03396"
     inkscape:zoom="0.7"
     inkscape:pageshadow="2"
     inkscape:pageopacity="0.0"
     borderopacity="1.0"
     bordercolor="#666666"
     pagecolor="#ffffff"
     id="base">
    <inkscape:grid
       type="xygrid"
       id="grid4565" />
  </sodipodi:namedview>
  <metadata
     id="metadata3998">
    <rdf:RDF>
      <cc:Work
         rdf:about="">
        <dc:format>image/svg+xml</dc:format>
        <dc:type
           rdf:resource="http://purl.org/dc/dcmitype/StillImage" />
        <dc:title></dc:title>
      </cc:Work>
    </rdf:RDF>
  </metadata>
  <g
     id="layer1"
     inkscape:groupmode="layer"
     inkscape:label="Vrstva 1">
    <g
       transform="matrix(1.1084677,0,0,1.1084519,-29.066223,-27.817244)"
       id="g4704">
      <g
         id="g3038"
         transform="matrix(6.5985554,0,0,6.5985554,26.221995,-4178.1842)">
        <path
           fill="#b2b2b2"
           d="m 48.138,704.971 v -3.212 c 0,-4.757 3.885,-8.827 8.521,-9.23 H 21.237 c -0.683,0 -1.237,0.388 -1.237,1.071 v 12.304 c 0,0.685 0.554,1.097 1.237,1.097 h 27.497 c -0.28,-0.401 -0.596,-1.264 -0.596,-2.03 z"
           id="path2988" />
        <path
           fill="#595959"
           d="m 70,672.444 c 0,0.686 -0.555,1.237 -1.238,1.237 H 21.237 c -0.683,0 -1.237,-0.552 -1.237,-1.237 v -12.303 c 0,-0.686 0.554,-1.239 1.237,-1.239 h 47.525 c 0.683,0 1.238,0.554 1.238,1.239 z"
           id="path2990" />
        <circle
           fill="#f79903"
           cx="62.91"
           cy="666.29303"
           r="2.404"
           id="circle2992" />
        <g
           id="g3004">
          <polygon
             fill-rule="evenodd"
             clip-rule="evenodd"
             fill="#ffffff"
             points="37.943,663.401 40.235,663.401 37.351,669.182 35.06,669.182 "
             id="polygon2994" />
          <g
             id="g3002">
            <polygon
               fill-rule="evenodd"
               clip-rule="evenodd"
               fill="#ffffff"
               points="29.527,663.401 31.82,663.401 28.938,669.182 26.644,669.182 "
               id="polygon2996" />
            <polygon
               fill-rule="evenodd"
               clip-rule="evenodd"
               fill="#ffffff"
               points="33.736,663.401 36.029,663.401 33.144,669.182 30.852,669.182 "
               id="polygon2998" />
            <polygon
               fill-rule="evenodd"
               clip-rule="evenodd"
               fill="#ffffff"
               points="42.171,663.401 44.464,663.401 41.579,669.182 39.285,669.182 "
               id="polygon3000" />
          </g>
        </g>
        <path
           fill="#b2b2b2"
           d="m 70,689.291 c 0,0.685 -0.555,1.237 -1.238,1.237 H 21.237 c -0.683,0 -1.237,-0.553 -1.237,-1.237 v -12.304 c 0,-0.684 0.554,-1.237 1.237,-1.237 h 47.525 c 0.683,0 1.238,0.554 1.238,1.237 z"
           id="path3006" />
        <path
           fill="#f79903"
           d="m 65.313,683.141 c 0,1.326 -1.077,2.403 -2.404,2.403 -1.329,0 -2.404,-1.077 -2.404,-2.403 0,-1.331 1.075,-2.406 2.404,-2.406 1.327,-10e-4 2.404,1.075 2.404,2.406 z"
           id="path3008" />
        <g
           id="g3020">
          <polygon
             fill-rule="evenodd"
             clip-rule="evenodd"
             fill="#595959"
             points="37.943,680.249 40.235,680.249 37.351,686.029 35.06,686.029 "
             id="polygon3010" />
          <g
             id="g3018">
            <polygon
               fill-rule="evenodd"
               clip-rule="evenodd"
               fill="#595959"
               points="29.527,680.249 31.82,680.249 28.938,686.029 26.644,686.029 "
               id="polygon3012" />
            <polygon
               fill-rule="evenodd"
               clip-rule="evenodd"
               fill="#595959"
               points="33.736,680.249 36.029,680.249 33.144,686.029 30.852,686.029 "
               id="polygon3014" />
            <polygon
               fill-rule="evenodd"
               clip-rule="evenodd"
               fill="#595959"
               points="42.171,680.249 44.464,680.249 41.579,686.029 39.285,686.029 "
               id="polygon3016" />
          </g>
        </g>
        <g
           id="g3032">
          <polygon
             fill-rule="evenodd"
             clip-rule="evenodd"
             fill="#595959"
             points="37.943,696.86 40.235,696.86 37.351,702.64 35.06,702.64 "
             id="polygon3022" />
          <g
             id="g3030">
            <polygon
               fill-rule="evenodd"
               clip-rule="evenodd"
               fill="#595959"
               points="29.527,696.86 31.82,696.86 28.938,702.64 26.644,702.64 "
               id="polygon3024" />
            <polygon
               fill-rule="evenodd"
               clip-rule="evenodd"
               fill="#595959"
               points="33.736,696.86 36.029,696.86 33.144,702.64 30.852,702.64 "
               id="polygon3026" />
            <polygon
               fill-rule="evenodd"
               clip-rule="evenodd"
               fill="#595959"
               points="42.171,696.86 44.464,696.86 41.579,702.64 39.285,702.64 "
               id="polygon3028" />
          </g>
        </g>
        <g
           id="g3036">
          <path
             fill="#f79903"
             d="m 68.036,706.811 c -1.012,0 -1.839,-0.825 -1.839,-1.84 v -3.212 c 0,-0.855 -0.695,-1.544 -1.552,-1.544 -0.848,0 -1.532,0.688 -1.532,1.544 v 3.212 c 0,1.015 -0.835,1.84 -1.853,1.84 -1.044,0 -1.871,-0.825 -1.871,-1.84 v -3.212 c 0,-0.855 -0.7,-1.544 -1.548,-1.544 -0.849,0 -1.543,0.688 -1.543,1.544 v 3.212 c 0,1.015 -0.832,1.84 -1.847,1.84 -1.015,0 -1.841,-0.825 -1.841,-1.84 v -3.212 c 0,-2.886 2.343,-5.24 5.232,-5.24 1.181,0 2.306,0.398 3.242,1.131 l 0.168,0.139 0.167,-0.139 c 0.931,-0.732 2.049,-1.131 3.227,-1.131 2.898,0 5.246,2.354 5.246,5.24 v 3.212 c -0.002,1.014 -0.835,1.84 -1.856,1.84 z"
             id="path3034" />
        </g>
      </g>
      <circle
         fill="#f79903"
         cx="158.1931"
         cy="157.0667"
         r="131.97112"
         id="circle3040"
         style="stroke-width:6.59856" />
      <text
         xml:space="preserve"
         style="font-style:normal;font-variant:normal;font-weight:bold;font-stretch:normal;font-size:85.3333px;line-height:1.25;font-family:FreeMono;-inkscape-font-specification:'FreeMono Bold';letter-spacing:0px;word-spacing:0px;fill:#ffffff;fill-opacity:1;stroke:none"
         x="28"
         y="176"
         id="text4673"><tspan
           sodipodi:role="line"
           id="tspan4671"
           x="28"
           y="176">&lt;?php</tspan></text>
    </g>
  </g>
</svg>
